{
	"asset":{
		"generator":"Khronos glTF Blender I/O v5.1.19",
		"version":"2.0"
	},
	"extensionsUsed":[
		"KHR_materials_clearcoat",
		"KHR_materials_transmission"
	],
	"scene":0,
	"scenes":[
		{
			"name":"Scene",
			"nodes":[
				0,
				1,
				2
			]
		}
	],
	"nodes":[
		{
			"mesh":0,
			"name":"\u5186\u67f1",
			"scale":[
				1,
				0.40816593170166016,
				1
			],
			"translation":[
				0,
				0.40816694498062134,
				0
			]
		},
		{
			"mesh":1,
			"name":"\u5186\u67f1.001",
			"scale":[
				1,
				0.40816593170166016,
				1
			],
			"translation":[
				0,
				0.40816694498062134,
				0
			]
		},
		{
			"mesh":2,
			"name":"lock",
			"scale":[
				0.3827228546142578,
				0.3827228546142578,
				0.3827228546142578
			],
			"translation":[
				-0.10190622508525848,
				1.6668756008148193,
				-0.014371935278177261
			]
		}
	],
	"materials":[
		{
			"alphaMode":"BLEND",
			"doubleSided":true,
			"extensions":{
				"KHR_materials_clearcoat":{
					"clearcoatRoughnessFactor":0
				},
				"KHR_materials_transmission":{
					"transmissionFactor":1
				}
			},
			"name":"\u30de\u30c6\u30ea\u30a2\u30eb",
			"pbrMetallicRoughness":{
				"baseColorFactor":[
					0.7991030812263489,
					0.14995986223220825,
					0.18447503447532654,
					0.7560693025588989
				],
				"metallicFactor":0,
				"roughnessFactor":0
			}
		},
		{
			"alphaMode":"BLEND",
			"doubleSided":true,
			"extensions":{
				"KHR_materials_clearcoat":{
					"clearcoatRoughnessFactor":0
				},
				"KHR_materials_transmission":{
					"transmissionFactor":1
				}
			},
			"name":"\u30de\u30c6\u30ea\u30a2\u30eb.002",
			"pbrMetallicRoughness":{
				"baseColorFactor":[
					0.7991030812263489,
					0.14995986223220825,
					0.18447503447532654,
					0.7460190653800964
				],
				"metallicFactor":0,
				"roughnessFactor":0
			}
		},
		{
			"doubleSided":true,
			"name":"Material.003",
			"pbrMetallicRoughness":{
				"baseColorFactor":[
					0.8000156879425049,
					0.0014064869610592723,
					0.012653077021241188,
					1
				],
				"metallicFactor":0,
				"roughnessFactor":0.5
			}
		},
		{
			"doubleSided":true,
			"name":"\u30de\u30c6\u30ea\u30a2\u30eb.003",
			"pbrMetallicRoughness":{
				"baseColorFactor":[
					0.45158496499061584,
					0.45158496499061584,
					0.45158496499061584,
					1
				],
				"metallicFactor":0,
				"roughnessFactor":0.5
			}
		},
		{
			"doubleSided":true,
			"name":"\u30de\u30c6\u30ea\u30a2\u30eb.004",
			"pbrMetallicRoughness":{
				"baseColorFactor":[
					0.800000011920929,
					0.800000011920929,
					0.800000011920929,
					1
				],
				"metallicFactor":0,
				"roughnessFactor":0.5
			}
		}
	],
	"meshes":[
		{
			"name":"\u5186\u67f1",
			"primitives":[
				{
					"attributes":{
						"POSITION":0,
						"NORMAL":1,
						"TEXCOORD_0":2
					},
					"indices":3,
					"material":0
				}
			]
		},
		{
			"name":"\u5186\u67f1.001",
			"primitives":[
				{
					"attributes":{
						"POSITION":4,
						"NORMAL":5,
						"TEXCOORD_0":6
					},
					"indices":7,
					"material":1
				}
			]
		},
		{
			"name":"Cylinder.002",
			"primitives":[
				{
					"attributes":{
						"POSITION":8,
						"NORMAL":9,
						"TEXCOORD_0":10
					},
					"indices":11,
					"material":2
				},
				{
					"attributes":{
						"POSITION":12,
						"NORMAL":13,
						"TEXCOORD_0":14
					},
					"indices":15,
					"material":3
				},
				{
					"attributes":{
						"POSITION":16,
						"NORMAL":17,
						"TEXCOORD_0":18
					},
					"indices":19,
					"material":4
				}
			]
		}
	],
	"accessors":[
		{
			"bufferView":0,
			"componentType":5126,
			"count":66,
			"max":[
				1,
				1,
				1
			],
			"min":[
				-1,
				-1,
				-1
			],
			"type":"VEC3"
		},
		{
			"bufferView":1,
			"componentType":5126,
			"count":66,
			"type":"VEC3"
		},
		{
			"bufferView":2,
			"componentType":5126,
			"count":66,
			"type":"VEC2"
		},
		{
			"bufferView":3,
			"componentType":5123,
			"count":192,
			"type":"SCALAR"
		},
		{
			"bufferView":4,
			"componentType":5126,
			"count":66,
			"max":[
				1,
				1,
				1
			],
			"min":[
				-1,
				-1,
				-1
			],
			"type":"VEC3"
		},
		{
			"bufferView":5,
			"componentType":5126,
			"count":66,
			"type":"VEC3"
		},
		{
			"bufferView":6,
			"componentType":5126,
			"count":66,
			"type":"VEC2"
		},
		{
			"bufferView":7,
			"componentType":5123,
			"count":192,
			"type":"SCALAR"
		},
		{
			"bufferView":8,
			"componentType":5126,
			"count":2164,
			"max":[
				0.2850850224494934,
				1.5963006019592285,
				0.9999999403953552
			],
			"min":[
				-0.2752053737640381,
				-1,
				-0.9999999403953552
			],
			"type":"VEC3"
		},
		{
			"bufferView":9,
			"componentType":5126,
			"count":2164,
			"type":"VEC3"
		},
		{
			"bufferView":10,
			"componentType":5126,
			"count":2164,
			"type":"VEC2"
		},
		{
			"bufferView":11,
			"componentType":5123,
			"count":3246,
			"type":"SCALAR"
		},
		{
			"bufferView":12,
			"componentType":5126,
			"count":64,
			"max":[
				0.2850850224494934,
				0.9125161170959473,
				0.9125159382820129
			],
			"min":[
				-0.2752053737640381,
				-0.9125159978866577,
				-0.9125159382820129
			],
			"type":"VEC3"
		},
		{
			"bufferView":13,
			"componentType":5126,
			"count":64,
			"type":"VEC3"
		},
		{
			"bufferView":14,
			"componentType":5126,
			"count":64,
			"type":"VEC2"
		},
		{
			"bufferView":15,
			"componentType":5123,
			"count":132,
			"type":"SCALAR"
		},
		{
			"bufferView":16,
			"componentType":5126,
			"count":133,
			"max":[
				0.30491942167282104,
				-0.15640777349472046,
				0.324242502450943
			],
			"min":[
				0.2467605620622635,
				-0.7956042289733887,
				-0.3149539530277252
			],
			"type":"VEC3"
		},
		{
			"bufferView":17,
			"componentType":5126,
			"count":133,
			"type":"VEC3"
		},
		{
			"bufferView":18,
			"componentType":5126,
			"count":133,
			"type":"VEC2"
		},
		{
			"bufferView":19,
			"componentType":5123,
			"count":249,
			"type":"SCALAR"
		}
	],
	"bufferViews":[
		{
			"buffer":0,
			"byteLength":792,
			"byteOffset":0,
			"target":34962
		},
		{
			"buffer":0,
			"byteLength":792,
			"byteOffset":792,
			"target":34962
		},
		{
			"buffer":0,
			"byteLength":528,
			"byteOffset":1584,
			"target":34962
		},
		{
			"buffer":0,
			"byteLength":384,
			"byteOffset":2112,
			"target":34963
		},
		{
			"buffer":0,
			"byteLength":792,
			"byteOffset":2496,
			"target":34962
		},
		{
			"buffer":0,
			"byteLength":792,
			"byteOffset":3288,
			"target":34962
		},
		{
			"buffer":0,
			"byteLength":528,
			"byteOffset":4080,
			"target":34962
		},
		{
			"buffer":0,
			"byteLength":384,
			"byteOffset":4608,
			"target":34963
		},
		{
			"buffer":0,
			"byteLength":25968,
			"byteOffset":4992,
			"target":34962
		},
		{
			"buffer":0,
			"byteLength":25968,
			"byteOffset":30960,
			"target":34962
		},
		{
			"buffer":0,
			"byteLength":17312,
			"byteOffset":56928,
			"target":34962
		},
		{
			"buffer":0,
			"byteLength":6492,
			"byteOffset":74240,
			"target":34963
		},
		{
			"buffer":0,
			"byteLength":768,
			"byteOffset":80732,
			"target":34962
		},
		{
			"buffer":0,
			"byteLength":768,
			"byteOffset":81500,
			"target":34962
		},
		{
			"buffer":0,
			"byteLength":512,
			"byteOffset":82268,
			"target":34962
		},
		{
			"buffer":0,
			"byteLength":264,
			"byteOffset":82780,
			"target":34963
		},
		{
			"buffer":0,
			"byteLength":1596,
			"byteOffset":83044,
			"target":34962
		},
		{
			"buffer":0,
			"byteLength":1596,
			"byteOffset":84640,
			"target":34962
		},
		{
			"buffer":0,
			"byteLength":1064,
			"byteOffset":86236,
			"target":34962
		},
		{
			"buffer":0,
			"byteLength":498,
			"byteOffset":87300,
			"target":34963
		}
	],
	"buffers":[
		{
			"byteLength":87800,
			"uri":"lock.bin"
		}
	]
}
