{
	"asset":{
		"generator":"Khronos glTF Blender I/O v5.1.19",
		"version":"2.0"
	},
	"scene":0,
	"scenes":[
		{
			"name":"Scene",
			"nodes":[
				0,
				1,
				2,
				3
			]
		}
	],
	"nodes":[
		{
			"mesh":0,
			"name":"\u7acb\u65b9\u4f53",
			"rotation":[
				0,
				0,
				-1,
				0
			],
			"scale":[
				-0.5817049741744995,
				-5.727944850921631,
				-9.841353416442871
			],
			"translation":[
				0.6368606090545654,
				-0.1218368411064148,
				-0.01721024513244629
			]
		},
		{
			"mesh":1,
			"name":"\u30c6\u30ad\u30b9\u30c8.002",
			"rotation":[
				0.5,
				0.5,
				-0.5,
				0.4999999701976776
			],
			"scale":[
				1.3879480361938477,
				0.07379471510648727,
				1.3879480361938477
			],
			"translation":[
				1.2240008115768433,
				1.5722084045410156,
				3.6442668437957764
			]
		},
		{
			"mesh":2,
			"name":"\u30c6\u30ad\u30b9\u30c8",
			"rotation":[
				0.5,
				0.5,
				-0.5,
				0.5
			],
			"scale":[
				0.5817049741744995,
				0.05196093022823334,
				0.5817049741744995
			],
			"translation":[
				1.2211674451828003,
				-2.3730483055114746,
				3.0964620113372803
			]
		},
		{
			"mesh":3,
			"name":"\u30c6\u30ad\u30b9\u30c8.001",
			"rotation":[
				0.5,
				0.5,
				-0.5,
				0.5
			],
			"scale":[
				1.2695976495742798,
				0.2391211986541748,
				1.2695976495742798
			],
			"translation":[
				1.2284095287322998,
				-0.4844144284725189,
				2.73980975151062
			]
		}
	],
	"materials":[
		{
			"doubleSided":true,
			"name":"\u30de\u30c6\u30ea\u30a2\u30eb",
			"pbrMetallicRoughness":{
				"baseColorTexture":{
					"index":0
				},
				"metallicFactor":0,
				"roughnessFactor":0.5
			}
		},
		{
			"doubleSided":true,
			"name":"\u30de\u30c6\u30ea\u30a2\u30eb.003",
			"pbrMetallicRoughness":{
				"baseColorFactor":[
					0.800000011920929,
					0.800000011920929,
					0.800000011920929,
					1
				],
				"metallicFactor":0,
				"roughnessFactor":0.5
			}
		},
		{
			"doubleSided":true,
			"name":"\u30de\u30c6\u30ea\u30a2\u30eb.004",
			"pbrMetallicRoughness":{
				"baseColorFactor":[
					0.800000011920929,
					0.800000011920929,
					0.800000011920929,
					1
				],
				"metallicFactor":0,
				"roughnessFactor":0.5
			}
		},
		{
			"doubleSided":true,
			"name":"\u30de\u30c6\u30ea\u30a2\u30eb.001",
			"pbrMetallicRoughness":{
				"baseColorFactor":[
					0.800000011920929,
					0.800000011920929,
					0.800000011920929,
					1
				],
				"metallicFactor":0,
				"roughnessFactor":0.5
			}
		}
	],
	"meshes":[
		{
			"name":"\u7acb\u65b9\u4f53",
			"primitives":[
				{
					"attributes":{
						"POSITION":0,
						"NORMAL":1,
						"TEXCOORD_0":2
					},
					"indices":3,
					"material":0
				}
			]
		},
		{
			"name":"\u30c6\u30ad\u30b9\u30c8.002",
			"primitives":[
				{
					"attributes":{
						"POSITION":4,
						"NORMAL":5,
						"TEXCOORD_0":6
					},
					"indices":7,
					"material":1
				}
			]
		},
		{
			"name":"\u30c6\u30ad\u30b9\u30c8.003",
			"primitives":[
				{
					"attributes":{
						"POSITION":8,
						"NORMAL":9,
						"TEXCOORD_0":10
					},
					"indices":11,
					"material":2
				}
			]
		},
		{
			"name":"\u30c6\u30ad\u30b9\u30c8",
			"primitives":[
				{
					"attributes":{
						"POSITION":12,
						"NORMAL":13,
						"TEXCOORD_0":14
					},
					"indices":15,
					"material":3
				}
			]
		}
	],
	"textures":[
		{
			"sampler":0,
			"source":0
		}
	],
	"images":[
		{
			"mimeType":"image/png",
			"name":"sun.png",
			"uri":"sun.png.png"
		}
	],
	"accessors":[
		{
			"bufferView":0,
			"componentType":5126,
			"count":24,
			"max":[
				1,
				1,
				1
			],
			"min":[
				-1,
				-1,
				-1
			],
			"type":"VEC3"
		},
		{
			"bufferView":1,
			"componentType":5126,
			"count":24,
			"type":"VEC3"
		},
		{
			"bufferView":2,
			"componentType":5126,
			"count":24,
			"type":"VEC2"
		},
		{
			"bufferView":3,
			"componentType":5123,
			"count":36,
			"type":"SCALAR"
		},
		{
			"bufferView":4,
			"componentType":5126,
			"count":8406,
			"max":[
				5.12000036239624,
				0,
				0.009000000543892384
			],
			"min":[
				0.05000000074505806,
				-0.0871015191078186,
				-0.6910000443458557
			],
			"type":"VEC3"
		},
		{
			"bufferView":5,
			"componentType":5126,
			"count":8406,
			"type":"VEC3"
		},
		{
			"bufferView":6,
			"componentType":5126,
			"count":8406,
			"type":"VEC2"
		},
		{
			"bufferView":7,
			"componentType":5123,
			"count":18528,
			"type":"SCALAR"
		},
		{
			"bufferView":8,
			"componentType":5126,
			"count":10892,
			"max":[
				10.806000709533691,
				0,
				0.23000000417232513
			],
			"min":[
				0.07000000029802322,
				-0.27259621024131775,
				-0.6820000410079956
			],
			"type":"VEC3"
		},
		{
			"bufferView":9,
			"componentType":5126,
			"count":10892,
			"type":"VEC3"
		},
		{
			"bufferView":10,
			"componentType":5126,
			"count":10892,
			"type":"VEC2"
		},
		{
			"bufferView":11,
			"componentType":5123,
			"count":21636,
			"type":"SCALAR"
		},
		{
			"bufferView":12,
			"componentType":5126,
			"count":2586,
			"max":[
				2.4570000171661377,
				0,
				0.009000000543892384
			],
			"min":[
				0.07700000703334808,
				-0.04543190076947212,
				-0.6820000410079956
			],
			"type":"VEC3"
		},
		{
			"bufferView":13,
			"componentType":5126,
			"count":2586,
			"type":"VEC3"
		},
		{
			"bufferView":14,
			"componentType":5126,
			"count":2586,
			"type":"VEC2"
		},
		{
			"bufferView":15,
			"componentType":5123,
			"count":5112,
			"type":"SCALAR"
		}
	],
	"bufferViews":[
		{
			"buffer":0,
			"byteLength":288,
			"byteOffset":0,
			"target":34962
		},
		{
			"buffer":0,
			"byteLength":288,
			"byteOffset":288,
			"target":34962
		},
		{
			"buffer":0,
			"byteLength":192,
			"byteOffset":576,
			"target":34962
		},
		{
			"buffer":0,
			"byteLength":72,
			"byteOffset":768,
			"target":34963
		},
		{
			"buffer":0,
			"byteLength":100872,
			"byteOffset":840,
			"target":34962
		},
		{
			"buffer":0,
			"byteLength":100872,
			"byteOffset":101712,
			"target":34962
		},
		{
			"buffer":0,
			"byteLength":67248,
			"byteOffset":202584,
			"target":34962
		},
		{
			"buffer":0,
			"byteLength":37056,
			"byteOffset":269832,
			"target":34963
		},
		{
			"buffer":0,
			"byteLength":130704,
			"byteOffset":306888,
			"target":34962
		},
		{
			"buffer":0,
			"byteLength":130704,
			"byteOffset":437592,
			"target":34962
		},
		{
			"buffer":0,
			"byteLength":87136,
			"byteOffset":568296,
			"target":34962
		},
		{
			"buffer":0,
			"byteLength":43272,
			"byteOffset":655432,
			"target":34963
		},
		{
			"buffer":0,
			"byteLength":31032,
			"byteOffset":698704,
			"target":34962
		},
		{
			"buffer":0,
			"byteLength":31032,
			"byteOffset":729736,
			"target":34962
		},
		{
			"buffer":0,
			"byteLength":20688,
			"byteOffset":760768,
			"target":34962
		},
		{
			"buffer":0,
			"byteLength":10224,
			"byteOffset":781456,
			"target":34963
		}
	],
	"samplers":[
		{
			"magFilter":9729,
			"minFilter":9987
		}
	],
	"buffers":[
		{
			"byteLength":791680,
			"uri":"GameClear.bin"
		}
	]
}
