{
	"asset":{
		"generator":"Khronos glTF Blender I/O v5.1.19",
		"version":"2.0"
	},
	"scene":0,
	"scenes":[
		{
			"name":"Scene",
			"nodes":[
				0,
				1,
				2
			]
		}
	],
	"nodes":[
		{
			"mesh":0,
			"name":"\u7acb\u65b9\u4f53",
			"scale":[
				0.6328132748603821,
				5.606932163238525,
				9.27538013458252
			],
			"translation":[
				0.987116813659668,
				0.6782140731811523,
				0.026964187622070312
			]
		},
		{
			"mesh":1,
			"name":"\u30c6\u30ad\u30b9\u30c8.001",
			"rotation":[
				0.5,
				0.5,
				-0.5,
				0.5
			],
			"scale":[
				0.6328132748603821,
				0.08051272481679916,
				0.6328132748603821
			],
			"translation":[
				1.6662381887435913,
				-1.4116319417953491,
				3.0332653522491455
			]
		},
		{
			"mesh":2,
			"name":"\u30c6\u30ad\u30b9\u30c8.002",
			"rotation":[
				0.5,
				0.5,
				-0.5,
				0.5
			],
			"scale":[
				1.5098923444747925,
				0.04090588539838791,
				1.5098923444747925
			],
			"translation":[
				1.6329169273376465,
				1.7385388612747192,
				4.144702911376953
			]
		}
	],
	"materials":[
		{
			"doubleSided":true,
			"name":"\u30de\u30c6\u30ea\u30a2\u30eb",
			"pbrMetallicRoughness":{
				"baseColorTexture":{
					"index":0
				},
				"metallicFactor":0,
				"roughnessFactor":0.5
			}
		},
		{
			"doubleSided":true,
			"name":"\u30de\u30c6\u30ea\u30a2\u30eb.002",
			"pbrMetallicRoughness":{
				"baseColorFactor":[
					0.800000011920929,
					0.800000011920929,
					0.800000011920929,
					1
				],
				"metallicFactor":0,
				"roughnessFactor":0.5
			}
		},
		{
			"doubleSided":true,
			"name":"\u30de\u30c6\u30ea\u30a2\u30eb.001",
			"pbrMetallicRoughness":{
				"metallicFactor":0,
				"roughnessFactor":0.5
			}
		}
	],
	"meshes":[
		{
			"name":"\u7acb\u65b9\u4f53",
			"primitives":[
				{
					"attributes":{
						"POSITION":0,
						"NORMAL":1,
						"TEXCOORD_0":2
					},
					"indices":3,
					"material":0
				}
			]
		},
		{
			"name":"\u30c6\u30ad\u30b9\u30c8.001",
			"primitives":[
				{
					"attributes":{
						"POSITION":4,
						"NORMAL":5,
						"TEXCOORD_0":6
					},
					"indices":7,
					"material":1
				}
			]
		},
		{
			"name":"\u30c6\u30ad\u30b9\u30c8.002",
			"primitives":[
				{
					"attributes":{
						"POSITION":8,
						"NORMAL":9,
						"TEXCOORD_0":10
					},
					"indices":11,
					"material":2
				}
			]
		}
	],
	"textures":[
		{
			"sampler":0,
			"source":0
		}
	],
	"images":[
		{
			"mimeType":"image/png",
			"name":"BlueRock",
			"uri":"BlueRock.png"
		}
	],
	"accessors":[
		{
			"bufferView":0,
			"componentType":5126,
			"count":24,
			"max":[
				1,
				1,
				1
			],
			"min":[
				-1,
				-1,
				-1
			],
			"type":"VEC3"
		},
		{
			"bufferView":1,
			"componentType":5126,
			"count":24,
			"type":"VEC3"
		},
		{
			"bufferView":2,
			"componentType":5126,
			"count":24,
			"type":"VEC2"
		},
		{
			"bufferView":3,
			"componentType":5123,
			"count":36,
			"type":"SCALAR"
		},
		{
			"bufferView":4,
			"componentType":5126,
			"count":9192,
			"max":[
				9.951001167297363,
				0,
				0.23000000417232513
			],
			"min":[
				0.07000000029802322,
				-0.4834364056587219,
				-0.6820000410079956
			],
			"type":"VEC3"
		},
		{
			"bufferView":5,
			"componentType":5126,
			"count":9192,
			"type":"VEC3"
		},
		{
			"bufferView":6,
			"componentType":5126,
			"count":9192,
			"type":"VEC2"
		},
		{
			"bufferView":7,
			"componentType":5123,
			"count":18240,
			"type":"SCALAR"
		},
		{
			"bufferView":8,
			"componentType":5126,
			"count":5298,
			"max":[
				5.437999725341797,
				0,
				0.009000000543892384
			],
			"min":[
				0.05000000074505806,
				-0.24410131573677063,
				-0.6910000443458557
			],
			"type":"VEC3"
		},
		{
			"bufferView":9,
			"componentType":5126,
			"count":5298,
			"type":"VEC3"
		},
		{
			"bufferView":10,
			"componentType":5126,
			"count":5298,
			"type":"VEC2"
		},
		{
			"bufferView":11,
			"componentType":5123,
			"count":10512,
			"type":"SCALAR"
		}
	],
	"bufferViews":[
		{
			"buffer":0,
			"byteLength":288,
			"byteOffset":0,
			"target":34962
		},
		{
			"buffer":0,
			"byteLength":288,
			"byteOffset":288,
			"target":34962
		},
		{
			"buffer":0,
			"byteLength":192,
			"byteOffset":576,
			"target":34962
		},
		{
			"buffer":0,
			"byteLength":72,
			"byteOffset":768,
			"target":34963
		},
		{
			"buffer":0,
			"byteLength":110304,
			"byteOffset":840,
			"target":34962
		},
		{
			"buffer":0,
			"byteLength":110304,
			"byteOffset":111144,
			"target":34962
		},
		{
			"buffer":0,
			"byteLength":73536,
			"byteOffset":221448,
			"target":34962
		},
		{
			"buffer":0,
			"byteLength":36480,
			"byteOffset":294984,
			"target":34963
		},
		{
			"buffer":0,
			"byteLength":63576,
			"byteOffset":331464,
			"target":34962
		},
		{
			"buffer":0,
			"byteLength":63576,
			"byteOffset":395040,
			"target":34962
		},
		{
			"buffer":0,
			"byteLength":42384,
			"byteOffset":458616,
			"target":34962
		},
		{
			"buffer":0,
			"byteLength":21024,
			"byteOffset":501000,
			"target":34963
		}
	],
	"samplers":[
		{
			"magFilter":9729,
			"minFilter":9987
		}
	],
	"buffers":[
		{
			"byteLength":522024,
			"uri":"GameOver.bin"
		}
	]
}
