{
	"asset":{
		"generator":"Khronos glTF Blender I/O v5.1.19",
		"version":"2.0"
	},
	"scene":0,
	"scenes":[
		{
			"name":"Scene",
			"nodes":[
				0,
				1,
				2
			]
		}
	],
	"nodes":[
		{
			"mesh":0,
			"name":"\u7acb\u65b9\u4f53",
			"rotation":[
				0,
				0,
				-1,
				0
			],
			"scale":[
				-0.6598141193389893,
				-5.753546714782715,
				-9.723767280578613
			],
			"translation":[
				0.5180232524871826,
				0.3835335373878479,
				-0.0326380729675293
			]
		},
		{
			"mesh":1,
			"name":"\u30c6\u30ad\u30b9\u30c8.001",
			"rotation":[
				0.5,
				0.5,
				-0.5,
				0.5
			],
			"scale":[
				0.6598141193389893,
				0.04650534316897392,
				0.6598141193389893
			],
			"translation":[
				1.181714653968811,
				-1.7954819202423096,
				3.101935863494873
			]
		},
		{
			"mesh":2,
			"name":"\u30c6\u30ad\u30b9\u30c8.002",
			"rotation":[
				0.5,
				0.5,
				-0.5,
				0.5
			],
			"scale":[
				1.574316382408142,
				0.28669166564941406,
				1.574316382408142
			],
			"translation":[
				1.1837356090545654,
				1.6426572799682617,
				3.8355236053466797
			]
		}
	],
	"materials":[
		{
			"doubleSided":true,
			"name":"\u30de\u30c6\u30ea\u30a2\u30eb",
			"pbrMetallicRoughness":{
				"baseColorTexture":{
					"index":0
				},
				"metallicFactor":0,
				"roughnessFactor":0.5
			}
		},
		{
			"doubleSided":true,
			"name":"\u30de\u30c6\u30ea\u30a2\u30eb.002",
			"pbrMetallicRoughness":{
				"baseColorFactor":[
					0.800000011920929,
					0.800000011920929,
					0.800000011920929,
					1
				],
				"metallicFactor":0,
				"roughnessFactor":0.5
			}
		},
		{
			"doubleSided":true,
			"name":"\u30de\u30c6\u30ea\u30a2\u30eb.003",
			"pbrMetallicRoughness":{
				"baseColorFactor":[
					0.800000011920929,
					0.800000011920929,
					0.800000011920929,
					1
				],
				"metallicFactor":0,
				"roughnessFactor":0.5
			}
		}
	],
	"meshes":[
		{
			"name":"\u7acb\u65b9\u4f53",
			"primitives":[
				{
					"attributes":{
						"POSITION":0,
						"NORMAL":1,
						"TEXCOORD_0":2
					},
					"indices":3,
					"material":0
				}
			]
		},
		{
			"name":"\u30c6\u30ad\u30b9\u30c8.001",
			"primitives":[
				{
					"attributes":{
						"POSITION":4,
						"NORMAL":5,
						"TEXCOORD_0":6
					},
					"indices":7,
					"material":1
				}
			]
		},
		{
			"name":"\u30c6\u30ad\u30b9\u30c8.002",
			"primitives":[
				{
					"attributes":{
						"POSITION":8,
						"NORMAL":9,
						"TEXCOORD_0":10
					},
					"indices":11,
					"material":2
				}
			]
		}
	],
	"textures":[
		{
			"sampler":0,
			"source":0
		}
	],
	"images":[
		{
			"mimeType":"image/png",
			"name":"Rock",
			"uri":"Rock.png"
		}
	],
	"accessors":[
		{
			"bufferView":0,
			"componentType":5126,
			"count":24,
			"max":[
				1,
				1,
				1
			],
			"min":[
				-1,
				-1,
				-1
			],
			"type":"VEC3"
		},
		{
			"bufferView":1,
			"componentType":5126,
			"count":24,
			"type":"VEC3"
		},
		{
			"bufferView":2,
			"componentType":5126,
			"count":24,
			"type":"VEC2"
		},
		{
			"bufferView":3,
			"componentType":5123,
			"count":36,
			"type":"SCALAR"
		},
		{
			"bufferView":4,
			"componentType":5126,
			"count":9192,
			"max":[
				9.951001167297363,
				0,
				0.23000000417232513
			],
			"min":[
				0.07000000029802322,
				-0.4834364056587219,
				-0.6820000410079956
			],
			"type":"VEC3"
		},
		{
			"bufferView":5,
			"componentType":5126,
			"count":9192,
			"type":"VEC3"
		},
		{
			"bufferView":6,
			"componentType":5126,
			"count":9192,
			"type":"VEC2"
		},
		{
			"bufferView":7,
			"componentType":5123,
			"count":18240,
			"type":"SCALAR"
		},
		{
			"bufferView":8,
			"componentType":5126,
			"count":4002,
			"max":[
				5.093999862670898,
				0,
				0.009000000543892384
			],
			"min":[
				0.017000000923871994,
				-0.12731672823429108,
				-0.6910000443458557
			],
			"type":"VEC3"
		},
		{
			"bufferView":9,
			"componentType":5126,
			"count":4002,
			"type":"VEC3"
		},
		{
			"bufferView":10,
			"componentType":5126,
			"count":4002,
			"type":"VEC2"
		},
		{
			"bufferView":11,
			"componentType":5123,
			"count":7896,
			"type":"SCALAR"
		}
	],
	"bufferViews":[
		{
			"buffer":0,
			"byteLength":288,
			"byteOffset":0,
			"target":34962
		},
		{
			"buffer":0,
			"byteLength":288,
			"byteOffset":288,
			"target":34962
		},
		{
			"buffer":0,
			"byteLength":192,
			"byteOffset":576,
			"target":34962
		},
		{
			"buffer":0,
			"byteLength":72,
			"byteOffset":768,
			"target":34963
		},
		{
			"buffer":0,
			"byteLength":110304,
			"byteOffset":840,
			"target":34962
		},
		{
			"buffer":0,
			"byteLength":110304,
			"byteOffset":111144,
			"target":34962
		},
		{
			"buffer":0,
			"byteLength":73536,
			"byteOffset":221448,
			"target":34962
		},
		{
			"buffer":0,
			"byteLength":36480,
			"byteOffset":294984,
			"target":34963
		},
		{
			"buffer":0,
			"byteLength":48024,
			"byteOffset":331464,
			"target":34962
		},
		{
			"buffer":0,
			"byteLength":48024,
			"byteOffset":379488,
			"target":34962
		},
		{
			"buffer":0,
			"byteLength":32016,
			"byteOffset":427512,
			"target":34962
		},
		{
			"buffer":0,
			"byteLength":15792,
			"byteOffset":459528,
			"target":34963
		}
	],
	"samplers":[
		{
			"magFilter":9729,
			"minFilter":9987
		}
	],
	"buffers":[
		{
			"byteLength":475320,
			"uri":"TimeOver.bin"
		}
	]
}
