{
	"asset":{
		"generator":"Khronos glTF Blender I/O v5.1.19",
		"version":"2.0"
	},
	"scene":0,
	"scenes":[
		{
			"name":"Scene",
			"nodes":[
				0,
				1,
				2
			]
		}
	],
	"nodes":[
		{
			"mesh":0,
			"name":"\u30c6\u30ad\u30b9\u30c8.001",
			"rotation":[
				0.7071068286895752,
				0,
				0,
				0.7071068286895752
			]
		},
		{
			"mesh":1,
			"name":"\u30c6\u30ad\u30b9\u30c8",
			"rotation":[
				0.7071068286895752,
				0,
				0,
				0.7071068286895752
			],
			"translation":[
				0.16693487763404846,
				-0.4000000059604645,
				0
			]
		},
		{
			"mesh":2,
			"name":"\u30c6\u30ad\u30b9\u30c8.002",
			"rotation":[
				0.7071068286895752,
				0,
				0,
				0.7071068286895752
			],
			"translation":[
				-0.03583843261003494,
				0.4000000059604645,
				0
			]
		}
	],
	"materials":[
		{
			"doubleSided":true,
			"name":"\u30de\u30c6\u30ea\u30a2\u30eb.001",
			"pbrMetallicRoughness":{
				"baseColorFactor":[
					0.6837719678878784,
					0.10438918322324753,
					0.8000315427780151,
					1
				],
				"metallicFactor":0,
				"roughnessFactor":0.5
			}
		},
		{
			"doubleSided":true,
			"name":"\u30de\u30c6\u30ea\u30a2\u30eb.003",
			"pbrMetallicRoughness":{
				"baseColorFactor":[
					0.41561242938041687,
					0.3602375388145447,
					0.8000229597091675,
					1
				],
				"metallicFactor":0,
				"roughnessFactor":0.5
			}
		},
		{
			"doubleSided":true,
			"name":"\u30de\u30c6\u30ea\u30a2\u30eb.002",
			"pbrMetallicRoughness":{
				"baseColorFactor":[
					0.8000156879425049,
					0.11385685950517654,
					0.10810726881027222,
					1
				],
				"metallicFactor":0,
				"roughnessFactor":0.5
			}
		}
	],
	"meshes":[
		{
			"name":"\u30c6\u30ad\u30b9\u30c8.001",
			"primitives":[
				{
					"attributes":{
						"POSITION":0,
						"NORMAL":1,
						"TEXCOORD_0":2
					},
					"indices":3,
					"material":0
				}
			]
		},
		{
			"name":"\u30c6\u30ad\u30b9\u30c8.002",
			"primitives":[
				{
					"attributes":{
						"POSITION":4,
						"NORMAL":5,
						"TEXCOORD_0":6
					},
					"indices":7,
					"material":1
				}
			]
		},
		{
			"name":"\u30c6\u30ad\u30b9\u30c8.003",
			"primitives":[
				{
					"attributes":{
						"POSITION":8,
						"NORMAL":9,
						"TEXCOORD_0":10
					},
					"indices":11,
					"material":2
				}
			]
		}
	],
	"accessors":[
		{
			"bufferView":0,
			"componentType":5126,
			"count":1034,
			"max":[
				2.376000165939331,
				0.0537957102060318,
				0.009000000543892384
			],
			"min":[
				0.8379999995231628,
				0,
				-0.6380000114440918
			],
			"type":"VEC3"
		},
		{
			"bufferView":1,
			"componentType":5126,
			"count":1034,
			"type":"VEC3"
		},
		{
			"bufferView":2,
			"componentType":5126,
			"count":1034,
			"type":"VEC2"
		},
		{
			"bufferView":3,
			"componentType":5123,
			"count":1836,
			"type":"SCALAR"
		},
		{
			"bufferView":4,
			"componentType":5126,
			"count":589,
			"max":[
				1.3410000801086426,
				0.05428282544016838,
				0
			],
			"min":[
				0.07500000298023224,
				0,
				-0.6820000410079956
			],
			"type":"VEC3"
		},
		{
			"bufferView":5,
			"componentType":5126,
			"count":589,
			"type":"VEC3"
		},
		{
			"bufferView":6,
			"componentType":5126,
			"count":589,
			"type":"VEC2"
		},
		{
			"bufferView":7,
			"componentType":5123,
			"count":1044,
			"type":"SCALAR"
		},
		{
			"bufferView":8,
			"componentType":5126,
			"count":364,
			"max":[
				1.4980000257492065,
				0.05301821976900101,
				0
			],
			"min":[
				0.07300000637769699,
				0,
				-0.6820000410079956
			],
			"type":"VEC3"
		},
		{
			"bufferView":9,
			"componentType":5126,
			"count":364,
			"type":"VEC3"
		},
		{
			"bufferView":10,
			"componentType":5126,
			"count":364,
			"type":"VEC2"
		},
		{
			"bufferView":11,
			"componentType":5123,
			"count":636,
			"type":"SCALAR"
		}
	],
	"bufferViews":[
		{
			"buffer":0,
			"byteLength":12408,
			"byteOffset":0,
			"target":34962
		},
		{
			"buffer":0,
			"byteLength":12408,
			"byteOffset":12408,
			"target":34962
		},
		{
			"buffer":0,
			"byteLength":8272,
			"byteOffset":24816,
			"target":34962
		},
		{
			"buffer":0,
			"byteLength":3672,
			"byteOffset":33088,
			"target":34963
		},
		{
			"buffer":0,
			"byteLength":7068,
			"byteOffset":36760,
			"target":34962
		},
		{
			"buffer":0,
			"byteLength":7068,
			"byteOffset":43828,
			"target":34962
		},
		{
			"buffer":0,
			"byteLength":4712,
			"byteOffset":50896,
			"target":34962
		},
		{
			"buffer":0,
			"byteLength":2088,
			"byteOffset":55608,
			"target":34963
		},
		{
			"buffer":0,
			"byteLength":4368,
			"byteOffset":57696,
			"target":34962
		},
		{
			"buffer":0,
			"byteLength":4368,
			"byteOffset":62064,
			"target":34962
		},
		{
			"buffer":0,
			"byteLength":2912,
			"byteOffset":66432,
			"target":34962
		},
		{
			"buffer":0,
			"byteLength":1272,
			"byteOffset":69344,
			"target":34963
		}
	],
	"buffers":[
		{
			"byteLength":70616,
			"uri":"Title.bin"
		}
	]
}
