{
	"asset":{
		"generator":"Khronos glTF Blender I/O v5.1.19",
		"version":"2.0"
	},
	"scene":0,
	"scenes":[
		{
			"name":"Scene",
			"nodes":[
				0,
				1
			]
		}
	],
	"nodes":[
		{
			"mesh":0,
			"name":"Cylinder",
			"scale":[
				0.07000000029802322,
				1,
				0.07000000029802322
			]
		},
		{
			"mesh":1,
			"name":"Cube",
			"scale":[
				0.09000000357627869,
				0.029999999329447746,
				0.7812941670417786
			],
			"translation":[
				0,
				0.9489867687225342,
				0
			]
		}
	],
	"materials":[
		{
			"doubleSided":true,
			"name":"material_wood",
			"pbrMetallicRoughness":{
				"baseColorFactor":[
					0.3108135163784027,
					0.10307430475950241,
					0.03528926521539688,
					1
				],
				"metallicFactor":0,
				"roughnessFactor":0.5
			}
		},
		{
			"doubleSided":true,
			"name":"material_metal",
			"pbrMetallicRoughness":{
				"baseColorFactor":[
					0.800000011920929,
					0.800000011920929,
					0.800000011920929,
					1
				],
				"metallicFactor":0,
				"roughnessFactor":0.5
			}
		}
	],
	"meshes":[
		{
			"name":"Cylinder",
			"primitives":[
				{
					"attributes":{
						"POSITION":0,
						"NORMAL":1,
						"TEXCOORD_0":2
					},
					"indices":3,
					"material":0
				}
			]
		},
		{
			"name":"Cube.001",
			"primitives":[
				{
					"attributes":{
						"POSITION":4,
						"NORMAL":5,
						"TEXCOORD_0":6
					},
					"indices":7,
					"material":1
				}
			]
		}
	],
	"accessors":[
		{
			"bufferView":0,
			"componentType":5126,
			"count":704,
			"max":[
				1,
				1,
				1.7041090726852417
			],
			"min":[
				-1,
				-1,
				-1.704108715057373
			],
			"type":"VEC3"
		},
		{
			"bufferView":1,
			"componentType":5126,
			"count":704,
			"type":"VEC3"
		},
		{
			"bufferView":2,
			"componentType":5126,
			"count":704,
			"type":"VEC2"
		},
		{
			"bufferView":3,
			"componentType":5123,
			"count":1140,
			"type":"SCALAR"
		},
		{
			"bufferView":4,
			"componentType":5126,
			"count":204,
			"max":[
				1,
				1,
				0.9447699189186096
			],
			"min":[
				-1,
				-1.966035008430481,
				-1
			],
			"type":"VEC3"
		},
		{
			"bufferView":5,
			"componentType":5126,
			"count":204,
			"type":"VEC3"
		},
		{
			"bufferView":6,
			"componentType":5126,
			"count":204,
			"type":"VEC2"
		},
		{
			"bufferView":7,
			"componentType":5123,
			"count":324,
			"type":"SCALAR"
		}
	],
	"bufferViews":[
		{
			"buffer":0,
			"byteLength":8448,
			"byteOffset":0,
			"target":34962
		},
		{
			"buffer":0,
			"byteLength":8448,
			"byteOffset":8448,
			"target":34962
		},
		{
			"buffer":0,
			"byteLength":5632,
			"byteOffset":16896,
			"target":34962
		},
		{
			"buffer":0,
			"byteLength":2280,
			"byteOffset":22528,
			"target":34963
		},
		{
			"buffer":0,
			"byteLength":2448,
			"byteOffset":24808,
			"target":34962
		},
		{
			"buffer":0,
			"byteLength":2448,
			"byteOffset":27256,
			"target":34962
		},
		{
			"buffer":0,
			"byteLength":1632,
			"byteOffset":29704,
			"target":34962
		},
		{
			"buffer":0,
			"byteLength":648,
			"byteOffset":31336,
			"target":34963
		}
	],
	"buffers":[
		{
			"byteLength":31984,
			"uri":"pickaxe.bin"
		}
	]
}
